<svg xmlns="http://www.w3.org/2000/svg" width="36" height="36" viewBox="0 0 36 36">
  <path fill="#FFFFFF" fill-rule="evenodd" d="M29.8641096,33.2498095 C29.827002,32.7525671 26.8954981,14.36944 26.8954981,14.36944 L26.8954981,14.2952247 C26.9029196,13.471435 27.2814176,13.1374662 27.8751399,12.4843717 C27.8751399,12.4843717 32.9292011,7.29672297 34.5396728,5.49329144 C36.1501446,3.68985992 36.380212,1.67862559 35.341198,0.639611544 C34.3021839,-0.399402502 32.3057926,-0.169335106 30.5023611,1.44113667 C28.6989296,3.05160844 23.5112809,8.10566962 23.5112809,8.10566962 C22.8581864,8.69939193 22.5242176,9.0778899 21.7004279,9.08531143 L21.6262126,9.08531143 C21.6262126,9.08531143 3.25050701,6.16122904 2.74584304,6.11669987 C2.24117908,6.0721707 1.48418313,6.01279847 0.712344126,6.78463747 C-0.1930824,7.690064 -0.0372302932,8.06856197 0.638128837,8.43221689 C0.638128837,8.43221689 13.9746163,15.9056965 14.4570156,16.1951361 C14.939415,16.4845757 14.9987873,16.8259661 14.5163879,17.3677377 C14.0339885,17.9095093 11.1321707,20.8706993 10.7982019,21.2195112 C10.4642331,21.568323 10.4048609,21.5237939 10.0337844,21.55348 L4.63091138,22.2065745 C4.35631481,22.2288391 4.0965613,22.340162 3.88875849,22.5479649 L2.96848891,23.4682344 C2.50093259,23.9357908 2.63452011,24.2178089 3.21339936,24.4404547 C3.79227862,24.6631006 6.92416381,25.5685271 6.92416381,25.5685271 C6.9983791,25.5982132 7.40656319,25.7689084 7.54015071,25.9024959 C7.85185493,26.2142001 8.14129455,26.4887967 7.73311046,27.0157253 C6.98353605,27.9582594 6.59019501,28.8859505 6.85737005,29.1531256 C7.12454509,29.4203006 8.05223621,29.0269596 8.99477038,28.2773852 C9.5142774,27.8617795 9.7962955,28.1586407 10.1079997,28.4703449 C10.2415872,28.6039324 10.4122824,29.0121165 10.4419685,29.0863318 C10.4419685,29.0863318 11.347395,32.218217 11.5700409,32.7970963 C11.7926868,33.3759755 12.0747049,33.509563 12.5422612,33.0420067 L13.4625308,32.1217371 C13.6703336,31.9139343 13.789078,31.6467593 13.8039211,31.3795842 L14.4570156,25.9767112 C14.4867018,25.6056348 14.4570156,25.5462625 14.7909844,25.2122937 C15.1249532,24.8783249 18.1009863,21.9765071 18.6427579,21.4941077 C19.1845296,21.0117084 19.5259199,21.0710806 19.8153595,21.55348 C20.1047991,22.0358794 27.5782787,35.3723668 27.5782787,35.3723668 C27.9493552,36.0551474 28.3204316,36.203578 29.2258582,35.2981515 C29.968011,34.5114694 29.9086388,33.7544735 29.8641096,33.2498095 Z"/>
</svg>
