<svg xmlns="http://www.w3.org/2000/svg" width="30" height="30" viewBox="0 0 30 30">
  <g fill="#FFFFFF" fill-rule="evenodd" transform="translate(1 1)">
    <path d="M6,5.5 C10.5,5.5 12,4.38071187 12,3 C12,1.61928813 10,0 6,0 C2,0 0,1.61928813 0,3 C0,4.38071187 1.5,5.5 6,5.5 Z" opacity=".5" transform="translate(8 6)"/>
    <path d="M23.5522881,4.29401964 C23.4598602,5.4954929 23.2222012,7.27781979 22.6111111,8.5 C21.6111111,10.5 20.6111111,12 20.6111111,12 C20.6111111,12 21.6111111,12.5 23.6111111,8 C23.9723732,7.18716038 24.2031249,6.50483103 24.3387278,5.93238452 C24.8049923,7.2189478 25,8.6117701 25,10 C25,10.6427523 24.9176487,11.2697675 24.7611078,11.8743678 C26.7834421,14.304321 28,16.9184685 28,18.5 C28,22.0898509 19.5,25.5 14,25.5 C8.5,25.5 0,22.0898509 0,18.5 C0,16.9184685 1.21655794,14.304321 3.23889223,11.8743678 C3.08235134,11.2697675 3,10.6427523 3,10 C3,8.54462787 3.21432705,7.08420838 3.73083759,5.74646749 C3.85854459,6.35550942 4.09878593,7.09726835 4.5,8 C6.5,12.5 7.5,12 7.5,12 C7.5,12 6.5,10.5 5.5,8.5 C4.86159845,7.2231969 4.63075344,5.33505898 4.54728024,4.1365099 C6.11509917,1.71722361 9.03324595,5.25308498e-16 14,0 C19.0738788,0 22.0098271,1.79209786 23.5522881,4.29401964 Z M14,11.5 C18.5,11.5 20,10.3807119 20,9 C20,7.61928813 18,6 14,6 C10,6 8,7.61928813 8,9 C8,10.3807119 9.5,11.5 14,11.5 Z M14,27 C4,27 3,26 2,23 C2,21.8954305 5,26 14,26 C23,26 26,21.8954305 26,23 C25,26 24,27 14,27 Z M14,24.5 C16.5,24.5 24,23.7614237 24,21 C24,18.2385763 19,15 14,15 C9,15 4,18.2385763 4,21 C4,23.7614237 11.5,24.5 14,24.5 Z M14,23.5 C10.4041796,23.5 5,22.3822739 5,21 C5,18.8397651 9.61071877,16 14,16 C18.3892812,16 23,18.8397651 23,21 C23,22.3822739 17.5958204,23.5 14,23.5 Z"/>
  </g>
</svg>
