<svg xmlns="http://www.w3.org/2000/svg" width="32" height="25" viewBox="0 0 32 25">
  <g fill="#FFFFFF" fill-rule="evenodd">
    <path d="M0,0.5 C0,0.225 0.225,0 0.5,0 L19.5,0 C19.775,0 20,0.225 20,0.5 L20,10.211 C20,10.486 19.788,10.786 19.528,10.878 C19.528,10.878 16.363,12.105 10,12.105 C3.637,12.105 0.472,10.878 0.472,10.878 C0.212,10.786 0,10.486 0,10.211 L0,0.5 Z" opacity=".3" transform="translate(6 4)"/>
    <path d="M27.106,2.212 L26.447,0.895 C26.201,0.402 25.55,0 25,0 L7,0 C6.45,0 5.799,0.402 5.553,0.894 L4.889,2.223 C2.977,2.915 0,4.13 0,5 L0,9 C0,9.55 0.517,10 1.066,10 L2.066,10 C2.616,10 3,9.55 3,9 L3,5 C3,4.759 3.429,4.447 4,4.137 L4,13.999 L4,24.5 C4,24.775 4.225,25 4.5,25 L6.5,25 C6.775,25 7,24.775 7,24.5 L7,23 L25,23 L25,24.5 C25,24.775 25.225,25 25.5,25 L27.5,25 C27.775,25 28,24.775 28,24.5 L28,13.999 L28,4.135 C28.571,4.446 29,4.759 29,5 L29,9 C29,9.55 29.45,10 30,10 L31,10 C31.55,10 32,9.55 32,9 L32,5 C32,4.125 29.007,2.901 27.106,2.212 Z M6,4.5 C6,4.225 6.225,4 6.5,4 L25.5,4 C25.775,4 26,4.225 26,4.5 L26,14.211 C26,14.486 25.788,14.786 25.528,14.878 C25.528,14.878 22.363,16.105 16,16.105 C9.637,16.105 6.472,14.878 6.472,14.878 C6.212,14.786 6,14.486 6,14.211 L6,4.5 Z M9,20 L6,20 L5,19.1 L5,17 L9,18 L9,20 Z M20,22 L13,22 L13,20 L20,20 L20,22 Z M23,20 L23,18 L27,17 L27,19.1 L26,20 L23,20 Z"/>
  </g>
</svg>
