<svg xmlns="http://www.w3.org/2000/svg" width="25" height="25" viewBox="0 0 25 25">
  <path fill="#000000" fill-rule="evenodd" d="M8.15331011,23.8956313 C7.95491716,24.126785 7.65412786,24.4703918 6.99495132,24.4891341 C6.21417906,24.489134 6.11818251,24.2704751 6.25257768,23.82691 C6.25257768,23.82691 8.78048778,15.0680595 8.86368485,14.7431949 C8.94688191,14.4183302 8.82528623,14.2496505 8.38370193,14.2246609 C7.94211762,14.1996713 5.40780773,14.1684343 5.11981797,14.1684343 C4.83182821,14.1684343 4.81902867,14.2059187 4.6462348,14.3496088 L2.03512767,16.3487758 C1.91353195,16.4549816 1.74713791,16.5174556 1.56794429,16.5174556 L0.774372491,16.5174556 C0.371186844,16.5174556 0.30718911,16.3425285 0.460783612,16.005169 C0.614378156,15.6678096 1.57434404,13.9685176 1.57434404,13.9685176 C1.59354337,13.9247858 1.69593971,13.6811373 1.69593971,13.5686842 C1.69593971,13.3062936 1.70233951,13.0626451 1.29915381,13.0189133 C0.569579755,12.9376972 1.72465067e-08,12.7127908 0,12.4878846 C2.58697616e-08,12.2629783 0.569579772,12.038072 1.2991538,11.9568558 C1.70233948,11.9068766 1.69593973,11.6694756 1.69593972,11.4070849 C1.69593971,11.2946318 1.59354337,11.0509833 1.57434404,11.0072515 C1.57434404,11.0072515 0.614378165,9.30795954 0.460783638,8.97060009 C0.307189072,8.63324068 0.371186797,8.45831357 0.774372495,8.45831354 L1.56794424,8.45831357 C1.74713791,8.45831353 1.90713221,8.52078751 2.03512766,8.62699326 L4.6462348,10.6261603 C4.81902867,10.7698504 4.82542846,10.8135822 5.11981797,10.8073348 C5.41420752,10.8010874 7.94211762,10.7760978 8.38370193,10.7511082 C8.82528623,10.7261187 8.94688191,10.5574389 8.86368485,10.2325743 C8.78048783,9.90770965 6.2525777,1.14885916 6.2525777,1.14885916 C6.11818248,0.711541373 6.21417906,0.486635085 6.9949513,0.486635083 C7.66052764,0.486635085 7.96131694,0.830241916 8.15970989,1.0613956 C8.35810284,1.29254929 15.020266,10.2575639 15.0522648,10.2888009 C15.4106521,10.6324077 15.7178412,10.6136655 16.255422,10.6386551 C16.255422,10.6386551 20.671265,10.6948816 22.1432127,10.7760978 C23.6151603,10.8573139 24.5751262,11.6007542 24.5751262,12.4753898 C24.5751262,13.3500253 23.6087606,14.099713 22.1368129,14.1809291 C20.6648653,14.2621453 16.2490223,14.3183719 16.2490223,14.3183719 C15.7114414,14.3433615 15.4042523,14.3246192 15.0138662,14.6994631 C15.0138662,14.6994631 8.35170306,23.6707251 8.15331011,23.8956313 Z"/>
</svg>
