<svg xmlns="http://www.w3.org/2000/svg" width="48" height="40" viewBox="0 0 48 40">
  <g fill="#FFFFFF" fill-rule="evenodd">
    <path d="M30.125,18.55 C31.8625,18.55 33.5,19.1375 34.85,20.2375 C36.1625,21.3125 37.0875,22.8 37.45,24.45 L37.825,26.1375 L39.525,25.925 C39.775,25.8875 40.0125,25.875 40.25,25.875 C43.4875,25.875 46.1125,28.6625 46.1125,31.9375 C46.1125,35.2125 43.4875,38 40.25,38 L21.3125,38 C20.1625,38 19.0875,37.4125 18.2625,36.575 C17.4375,35.7375 16.9875,34.5625 16.9875,33.3875 C16.9875,31.1375 18.725,29.275 20.975,28.9 C21.175,28.8625 22.025,28.7375 22.6875,28.675 C22.6875,28.675 22.625,28.025 22.6125,27.5 C22.6,26.975 22.6,26.3625 22.6,26.1125 C22.6125,21.9375 25.975,18.55 30.125,18.55 L30.125,18.55 Z M30.125,16.625 C24.9375,16.625 20.725,20.875 20.725,26.1125 C20.725,26.425 20.7375,26.75 20.775,27.05 C17.6,27.3375 15.125,30.225 15.125,33.4875 C15.125,36.95 17.9,39.9875 21.3375,39.9875 L40.25,39.9875 C44.5375,39.9875 48,36.2875 48,31.9625 C48,27.6375 44.525,24.025 40.25,24.025 C39.925,24.025 39.6,24 39.2875,24.0375 C38.3375,19.8375 34.6,16.625 30.125,16.625 L30.125,16.625 Z"/>
    <rect width="2" height="6.875" x="18"/>
    <rect width="7" height="2.125" y="18.75"/>
    <polygon points="5.787 7.487 7.188 6.075 11.175 10.088 9.775 11.5"/>
    <polygon points="28.012 11.488 26.613 10.088 30.587 6.075 31.988 7.487"/>
    <polygon points="7.188 32.438 5.787 31.025 9.775 27.012 11.175 28.425"/>
    <path d="M16.3375,25.75 C13.7625,24.725 11.9375,22.2 11.9375,19.25 C11.9375,15.4 15.05,12.2625 18.8875,12.2625 C20.875,12.2625 22.6625,13.1 23.925,14.45 C24.525,14.0125 25.1375,13.6625 25.6625,13.4125 C24.025,11.5 21.6,10.275 18.8875,10.275 C13.9625,10.275 9.9625,14.3 9.9625,19.25 C9.9625,22.725 11.9375,25.75 14.825,27.2375 C15.2875,26.5875 15.825,26.1 16.3375,25.75 Z"/>
  </g>
</svg>
