<svg xmlns="http://www.w3.org/2000/svg" width="40" height="40" viewBox="0 0 40 40">
  <g fill="#FFFFFF" fill-rule="evenodd">
    <rect width="2" height="7.375" x="19"/>
    <rect width="2" height="7.375" x="19" y="32.625"/>
    <rect width="7.375" height="2" x="32.625" y="19"/>
    <rect width="7.375" height="2" y="19"/>
    <rect width="2.1" height="5.975" x="30.129" y="27.925" transform="rotate(135 31.179 30.913)"/>
    <rect width="2.1" height="5.987" x="8.035" y="5.831" transform="rotate(135 9.085 8.825)"/>
    <rect width="2.1" height="5.975" x="30.119" y="5.835" transform="rotate(45.008 31.169 8.823)"/>
    <rect width="2.1" height="5.987" x="8.03" y="27.924" transform="rotate(45.008 9.08 30.918)"/>
    <path d="M20.1375,29.3375 C14.9125,29.3375 10.6625,25.0875 10.6625,19.8625 C10.6625,14.6375 14.9125,10.3875 20.1375,10.3875 C25.3625,10.3875 29.6125,14.6375 29.6125,19.8625 C29.6,25.0875 25.35,29.3375 20.1375,29.3375 Z M20.1375,12.5 C16.075,12.5 12.775,15.8 12.775,19.8625 C12.775,23.925 16.075,27.225 20.1375,27.225 C24.2,27.225 27.5,23.925 27.5,19.8625 C27.5,15.8 24.2,12.5 20.1375,12.5 Z"/>
  </g>
</svg>
