<svg xmlns="http://www.w3.org/2000/svg" width="36" height="34" viewBox="0 0 36 34">
  <g fill="#FFFFFF" fill-rule="evenodd" transform="translate(.875 .25)">
    <polygon points="23.813 17.625 17.313 17.625 19.813 9.625 13.188 9.625 10.438 22 15.6 22 11.813 33.625"/>
    <path d="M26.175,7.7125 C25.8375,7.7125 25.5,7.7125 25.175,7.75 C24.1875,3.375 20.2875,0.075 15.625,0.075 C10.2125,0.075 5.8375,4.475 5.8375,9.8875 C5.8375,10.2125 5.85,10.5375 5.8875,10.8625 C2.5875,11.15 0,14.075 0,17.4625 C0,21.0375 2.9,24.125 6.4625,24.125 L7.875,24.125 L7.875,22 L6.4625,22 C5.275,22 4.15,21.4875 3.2875,20.625 C2.4375,19.75 1.9625,18.5875 1.9625,17.375 C1.9625,15.05 3.775,13.15 6.1125,12.7625 C6.3125,12.725 7.2125,12.6 7.8875,12.5375 C7.8875,12.5375 7.825,11.875 7.8125,11.3375 C7.8,10.8 7.8,10.1625 7.8,9.9 C7.8,5.575 11.3125,2.0625 15.625,2.0625 C17.4375,2.0625 19.1375,2.6625 20.5375,3.8 C21.9,4.9125 22.8625,6.4625 23.25,8.1625 L23.6375,9.9125 L25.4125,9.6875 C25.675,9.65 25.925,9.6375 26.175,9.6375 C29.5375,9.6375 32.275,12.425 32.275,15.8125 C32.275,19.2 29.5375,21.9875 26.175,21.9875 L25.125,21.9875 L25.125,24.1125 L26.175,24.1125 C30.6375,24.1125 34.25,20.35 34.25,15.875 C34.25,11.425 30.6375,7.7125 26.175,7.7125 Z"/>
  </g>
</svg>
