<svg xmlns="http://www.w3.org/2000/svg" width="36" height="36" viewBox="0 0 36 36">
  <path fill="#FFFFFF" fill-rule="evenodd" d="M36,16.95 C36,12.2375 32.2,8.3125 27.5125,8.3125 C27.1625,8.3125 26.8,8.3 26.4625,8.35 C25.425,3.7375 21.325,0 16.425,0 C10.7375,0 6.1375,4.8875 6.1375,10.6 C6.1375,10.95 6.15,11.2875 6.1875,11.625 C2.725,11.9375 0,15.0375 0,18.6125 C0,22.275 2.8625,25.4625 6.45,25.65 L3.2625,30.325 L4.925,31.5375 L8.9375,25.65 L13.45,25.65 L7.5625,34.2875 L9.225,35.5 L15.9375,25.65 L20.675,25.65 L17.425,30.3625 L19.0875,31.575 L23.1625,25.65 L27.5,25.65 L27.55,25.65 L21.6625,34.2875 L23.325,35.5 L30.4,25.1125 C33.675,23.875 36,20.6375 36,16.95 Z M27.5125,23.3875 L22.25,23.3875 L22.2375,23.375 L22.225,23.3875 L6.8,23.3875 C5.55,23.3875 4.3625,22.8375 3.4625,21.925 C2.5625,21.0125 2.075,19.775 2.075,18.4875 C2.075,16.025 3.975,14.025 6.4375,13.6125 C6.65,13.575 7.5875,13.4375 8.3125,13.375 C8.3125,13.375 8.25,12.675 8.225,12.1125 C8.2,11.55 8.2125,10.875 8.2125,10.6 C8.2125,6.05 11.9,2.0875 16.4375,2.0875 C18.3375,2.0875 20.125,2.975 21.6,4.1625 C23.0375,5.325 24.05,6.9625 24.45,8.7625 L24.8625,10.6 L26.725,10.375 C27,10.3375 27.2625,10.325 27.525,10.325 C31.0625,10.325 33.9375,13.2875 33.9375,16.85 C33.925,20.4375 31.05,23.3875 27.5125,23.3875 Z" transform="translate(0 .25)"/>
</svg>
