<svg xmlns="http://www.w3.org/2000/svg" width="159" height="30" viewBox="0 0 159 30">
  <g fill="#FFFFFF" fill-rule="evenodd">
    <path d="M13 9.5C13 10.8 12.3 12.9 11.4 15.2 12.2 17.2 13.3 19.4 14.3 21.4 16.6 17 18.8 12 18.8 9.5 18.8 4.5 14.7.4 9.7.4 4.7.4.6 4.5.6 9.5.6 14.3 8.9 28.3 9.7 29.6 10 29.1 11.2 27.1 12.6 24.5 9.9 19.6 6.5 12.6 6.5 9.5 6.6 7.7 8 6.3 9.8 6.3 11.6 6.3 13 7.7 13 9.5zM32.6 14.5C33 14.5 33.3 14.5 33.7 14.4 34 14.3 34.3 14.2 34.6 14.1 34.9 13.9 35.1 13.7 35.2 13.4 35.4 13.1 35.4 12.7 35.4 12.3 35.4 11.8 35.3 11.5 35.2 11.2 35 10.9 34.8 10.7 34.6 10.5 34.3 10.3 34 10.2 33.7 10.2 33.4 10.1 33 10.1 32.6 10.1L30.1 10.1 30.1 14.5 32.6 14.5 32.6 14.5zM33.5 7.6C34.4 7.6 35.2 7.7 35.9 8 36.5 8.3 37.1 8.6 37.5 9.1 37.9 9.5 38.2 10 38.4 10.6 38.6 11.2 38.7 11.7 38.7 12.4 38.7 13 38.6 13.6 38.4 14.1 38.2 14.7 37.9 15.2 37.5 15.6 37.1 16 36.6 16.4 35.9 16.7 35.3 17 34.5 17.1 33.5 17.1L30.1 17.1 30.1 22.4 26.9 22.4 26.9 7.6 33.5 7.6 33.5 7.6zM40 22.3L42.9 22.3 42.9 11.6 40 11.6 40 22.3zM40 10L42.9 10 42.9 7.6 40 7.6 40 10zM48 11.6L48 13.1 48.1 13.1C48.5 12.5 49 12 49.5 11.7 50.1 11.4 50.7 11.3 51.3 11.3 52.1 11.3 52.7 11.4 53.2 11.6 53.7 11.8 54.1 12.1 54.4 12.5 54.7 12.9 54.9 13.3 55 13.9 55.1 14.4 55.2 15 55.2 15.7L55.2 22.3 52.3 22.3 52.3 16.3C52.3 15.4 52.2 14.8 51.9 14.3 51.6 13.9 51.1 13.7 50.4 13.7 49.6 13.7 49 13.9 48.7 14.4 48.3 14.9 48.2 15.7 48.2 16.7L48.2 22.3 45.3 22.3 45.3 11.6 48 11.6M69.3 14.5C69.7 14.5 70 14.5 70.4 14.4 70.7 14.3 71 14.2 71.3 14.1 71.6 13.9 71.8 13.7 71.9 13.4 72.1 13.1 72.1 12.7 72.1 12.3 72.1 11.8 72 11.5 71.9 11.2 71.7 10.9 71.5 10.7 71.3 10.5 71 10.3 70.7 10.2 70.4 10.2 70.1 10.1 69.7 10.1 69.3 10.1L66.8 10.1 66.8 14.5 69.3 14.5 69.3 14.5zM70.2 7.6C71.1 7.6 71.9 7.7 72.6 8 73.2 8.3 73.8 8.6 74.2 9.1 74.6 9.5 74.9 10 75.1 10.6 75.3 11.2 75.4 11.7 75.4 12.4 75.4 13 75.3 13.6 75.1 14.1 74.9 14.7 74.6 15.2 74.2 15.6 73.8 16 73.3 16.4 72.6 16.7 72 17 71.2 17.1 70.2 17.1L66.8 17.1 66.8 22.4 63.6 22.4 63.6 7.6 70.2 7.6 70.2 7.6zM82.5 17.3C82.3 17.4 82.1 17.4 81.9 17.5 81.7 17.5 81.5 17.6 81.2 17.6 81 17.6 80.7 17.7 80.5 17.7 80.3 17.7 80.1 17.8 79.9 17.9 79.7 18 79.5 18.1 79.3 18.2 79.1 18.3 79 18.5 78.9 18.6 78.8 18.8 78.8 19 78.8 19.3 78.8 19.6 78.8 19.8 78.9 20 79 20.2 79.1 20.3 79.3 20.4 79.5 20.5 79.7 20.6 79.9 20.6 80.1 20.6 80.3 20.7 80.6 20.7 81.2 20.7 81.6 20.6 81.9 20.4 82.2 20.2 82.4 20 82.6 19.7 82.8 19.4 82.8 19.2 82.9 18.9 82.9 18.6 83 18.4 83 18.2L83 17.1C82.8 17.2 82.7 17.3 82.5 17.3M76.7 13.2C77 12.7 77.4 12.4 77.9 12.1 78.4 11.8 78.9 11.6 79.5 11.5 80.1 11.4 80.7 11.3 81.3 11.3 81.8 11.3 82.4 11.3 82.9 11.4 83.5 11.5 84 11.6 84.4 11.8 84.8 12 85.2 12.3 85.5 12.7 85.8 13.1 85.9 13.6 85.9 14.3L85.9 19.9C85.9 20.4 85.9 20.8 86 21.3 86.1 21.7 86.2 22.1 86.3 22.3L83.3 22.3C83.2 22.1 83.2 22 83.2 21.8 83.2 21.6 83.1 21.5 83.1 21.3 82.6 21.8 82.1 22.1 81.4 22.3 80.8 22.5 80.1 22.6 79.5 22.6 79 22.6 78.5 22.5 78.1 22.4 77.7 22.3 77.3 22.1 76.9 21.8 76.6 21.5 76.3 21.2 76.1 20.8 75.9 20.4 75.8 19.9 75.8 19.4 75.8 18.8 75.9 18.3 76.1 17.9 76.3 17.5 76.6 17.2 76.9 17 77.2 16.8 77.6 16.6 78.1 16.5 78.5 16.4 79 16.3 79.4 16.2 79.8 16.1 80.3 16.1 80.7 16 81.1 16 81.5 15.9 81.8 15.8 82.1 15.7 82.4 15.6 82.6 15.4 82.8 15.2 82.9 15 82.9 14.7 82.9 14.4 82.8 14.1 82.7 13.9 82.6 13.7 82.5 13.6 82.3 13.5 82.1 13.4 81.9 13.3 81.7 13.3 81.5 13.3 81.2 13.2 81 13.2 80.4 13.2 80 13.3 79.6 13.6 79.3 13.8 79.1 14.3 79 14.8L76.1 14.8C76.2 14.2 76.4 13.6 76.7 13.2M92.1 25.5C91.5 25.9 90.8 26.1 89.7 26.1L88.8 26.1C88.5 26.1 88.2 26.1 87.9 26L87.9 23.6C88.2 23.6 88.5 23.7 88.7 23.7L89.6 23.7C90 23.7 90.3 23.5 90.5 23.2 90.7 22.9 90.8 22.6 90.8 22.3 90.8 22.1 90.8 21.8 90.7 21.6L87 11.6 90.1 11.6 92.5 18.9 92.5 18.9 94.8 11.6 97.8 11.6 93.3 23.6C93.1 24.5 92.7 25.1 92.1 25.5M101.7 11.6L101.7 13 101.7 13C102.1 12.4 102.5 12 103.1 11.7 103.6 11.4 104.3 11.2 105 11.2 105.7 11.2 106.3 11.3 106.8 11.6 107.4 11.9 107.8 12.3 108.1 13 108.4 12.5 108.8 12.1 109.4 11.8 109.9 11.4 110.6 11.3 111.3 11.3 111.9 11.3 112.4 11.4 112.9 11.5 113.4 11.6 113.8 11.9 114.1 12.2 114.4 12.5 114.7 12.9 114.9 13.4 115.1 13.9 115.2 14.5 115.2 15.2L115.2 22.3 112.3 22.3 112.3 16.3 112.3 15.3C112.3 15 112.2 14.7 112.1 14.5 112 14.3 111.8 14.1 111.6 13.9 111.4 13.8 111 13.7 110.6 13.7 110.2 13.7 109.9 13.8 109.6 13.9 109.3 14.1 109.1 14.3 109 14.5 108.9 14.8 108.8 15 108.7 15.4 108.7 15.7 108.6 16 108.6 16.4L108.6 22.3 105.7 22.3 105.7 16.3 105.7 15.4C105.7 15.1 105.6 14.8 105.5 14.5 105.4 14.2 105.2 14 105 13.9 104.8 13.7 104.4 13.7 103.9 13.7 103.8 13.7 103.6 13.7 103.4 13.8 103.2 13.9 103 14 102.7 14.2 102.5 14.4 102.3 14.6 102.2 14.9 102 15.2 102 15.6 102 16.2L102 22.4 99.1 22.4 99.1 11.6 101.7 11.6M123.8 14.1C123.4 13.7 122.9 13.5 122.2 13.5 121.7 13.5 121.3 13.6 121 13.7 120.7 13.9 120.4 14.1 120.3 14.3 120.1 14.5 120 14.8 119.9 15 119.8 15.3 119.8 15.5 119.8 15.7L124.6 15.7C124.3 15.1 124.1 14.5 123.8 14.1M120.4 19.7C120.8 20.1 121.5 20.3 122.3 20.3 122.9 20.3 123.4 20.2 123.8 19.9 124.2 19.6 124.5 19.3 124.6 19L127.2 19C126.8 20.3 126.2 21.2 125.3 21.7 124.4 22.3 123.4 22.5 122.2 22.5 121.4 22.5 120.6 22.4 119.9 22.1 119.2 21.8 118.7 21.4 118.2 21 117.7 20.5 117.4 19.9 117.1 19.2 116.8 18.5 116.7 17.8 116.7 16.9 116.7 16.1 116.8 15.4 117.1 14.7 117.4 14 117.7 13.4 118.2 12.9 118.7 12.4 119.3 12 119.9 11.7 120.6 11.4 121.3 11.3 122.1 11.3 123 11.3 123.8 11.5 124.5 11.8 125.2 12.2 125.7 12.6 126.2 13.2 126.6 13.8 126.9 14.5 127.1 15.2 127.3 16 127.4 16.7 127.3 17.6L119.6 17.6C119.8 18.6 120 19.3 120.4 19.7M131.8 11.6L131.8 13.1 131.9 13.1C132.3 12.5 132.8 12 133.3 11.7 133.9 11.4 134.5 11.3 135.1 11.3 135.9 11.3 136.5 11.4 137 11.6 137.5 11.8 137.9 12.1 138.2 12.5 138.5 12.9 138.7 13.3 138.8 13.9 138.9 14.4 139 15 139 15.7L139 22.3 136.1 22.3 136.1 16.3C136.1 15.4 136 14.8 135.7 14.3 135.4 13.9 134.9 13.7 134.2 13.7 133.4 13.7 132.8 13.9 132.5 14.4 132.1 14.9 132 15.7 132 16.7L132 22.3 129.1 22.3 129.1 11.6 131.8 11.6M147.2 11.6L147.2 13.6 145 13.6 145 18.9C145 19.4 145.1 19.7 145.2 19.9 145.4 20.1 145.7 20.1 146.2 20.1L146.7 20.1C146.9 20.1 147 20.1 147.1 20L147.1 22.3C146.9 22.3 146.6 22.4 146.3 22.4L145.4 22.4C144.9 22.4 144.5 22.4 144.1 22.3 143.7 22.2 143.3 22.1 143 21.9 142.7 21.7 142.4 21.5 142.3 21.1 142.1 20.8 142 20.3 142 19.8L142 13.5 140.2 13.5 140.2 11.5 142 11.5 142 8.3 144.9 8.3 144.9 11.5 147.2 11.5M151 19.6C151.1 19.8 151.3 20 151.5 20.2 151.7 20.3 151.9 20.5 152.2 20.5 152.5 20.6 152.7 20.6 153 20.6 153.2 20.6 153.4 20.6 153.6 20.5 153.8 20.5 154 20.4 154.2 20.3 154.4 20.2 154.5 20.1 154.7 19.9 154.8 19.7 154.9 19.5 154.9 19.3 154.9 18.9 154.6 18.5 154 18.3 153.4 18.1 152.6 17.9 151.6 17.6 151.2 17.5 150.8 17.4 150.4 17.3 150 17.2 149.6 17 149.3 16.8 149 16.6 148.7 16.3 148.5 16 148.3 15.7 148.2 15.3 148.2 14.8 148.2 14.1 148.3 13.5 148.6 13.1 148.9 12.7 149.2 12.3 149.7 12.1 150.1 11.8 150.6 11.7 151.2 11.6 151.8 11.5 152.3 11.4 152.9 11.4 153.5 11.4 154 11.5 154.6 11.6 155.1 11.7 155.6 11.9 156.1 12.2 156.5 12.5 156.9 12.8 157.2 13.2 157.5 13.6 157.7 14.2 157.7 14.8L154.9 14.8C154.9 14.2 154.6 13.9 154.3 13.7 153.9 13.5 153.5 13.4 152.9 13.4L152.4 13.4C152.2 13.4 152 13.5 151.9 13.5 151.7 13.6 151.6 13.7 151.5 13.8 151.4 13.9 151.3 14.1 151.3 14.3 151.3 14.6 151.4 14.8 151.6 14.9 151.8 15.1 152 15.2 152.4 15.3 152.7 15.4 153.1 15.5 153.5 15.6 153.9 15.7 154.3 15.8 154.7 15.9 155.1 16 155.5 16.1 155.9 16.3 156.3 16.4 156.7 16.6 157 16.8 157.3 17 157.6 17.3 157.8 17.6 158 17.9 158.1 18.4 158.1 18.8 158.1 19.5 158 20.1 157.7 20.6 157.4 21.1 157.1 21.5 156.6 21.7 156.1 22 155.6 22.2 155 22.3 154.4 22.4 153.8 22.5 153.2 22.5 152.6 22.5 152 22.4 151.4 22.3 150.8 22.2 150.3 22 149.8 21.7 149.3 21.4 149 21 148.7 20.6 148.4 20.1 148.2 19.5 148.2 18.8L151 18.8C150.8 19.1 150.9 19.4 151 19.6"/>
  </g>
</svg>
