<svg xmlns="http://www.w3.org/2000/svg" width="12" height="12" viewBox="0 0 12 12">
  <path fill="#FFFFFF" d="M310.502872,528.819857 C310.518428,529.094215 310.372057,529.478173 310.176895,529.673335 L309.891224,529.959006 C309.69677,530.15346 309.498073,530.090528 309.448575,529.820413 L308.675708,525.517668 L306.816724,527.376652 C306.836523,527.987592 306.838644,528.768945 306.721972,528.885618 L306.268716,529.338873 C306.074262,529.533328 305.844452,529.478881 305.757478,529.217958 L305.208056,526.864 L302.854098,526.314578 C302.593175,526.227604 302.538728,525.997794 302.733182,525.80334 L303.185731,525.350791 C303.302403,525.234119 304.083756,525.23624 304.694696,525.256039 L306.554387,523.396348 L302.251643,522.62348 C301.981528,522.573983 301.918595,522.375286 302.11305,522.180832 L302.398721,521.89516 C302.593882,521.699999 302.977134,521.552921 303.252199,521.569184 L308.111436,521.839299 L310.511357,519.439379 C311.096841,518.853894 312.046486,518.853187 312.632677,519.439379 C313.218869,520.02557 313.218162,520.975214 312.632677,521.560699 L310.232757,523.960619 L310.502872,528.819857 Z" transform="translate(-302 -519)"/>
</svg>
