<svg xmlns="http://www.w3.org/2000/svg" width="8" height="10" viewBox="0 0 8 10">
  <path fill="#FFFFFF" d="M5.5,4.98024471 L5.5,9 L4.5,9 L4.5,4.9809138 C4.23936743,4.92770009 3.98285266,4.8316535 3.74032244,4.69017754 C3.36781335,4.47288057 3.05784972,4.16291694 2.84055275,3.79040785 L1.06811055,0.751935513 C0.87366903,0.418607194 1.11410458,0 1.5,0 L8.5,0 C8.88589542,0 9.12633097,0.418607194 8.93188945,0.751935513 L7.15944725,3.79040785 C6.78624206,4.43018818 6.17271925,4.84268829 5.5,4.98024471 Z M5,10 C3.8954305,10 3,9.77614237 3,9.5 C3,9.22385763 3.8954305,9 5,9 C6.1045695,9 7,9.22385763 7,9.5 C7,9.77614237 6.1045695,10 5,10 Z" transform="translate(-1)"/>
</svg>
