<svg xmlns="http://www.w3.org/2000/svg" width="12" height="11" viewBox="0 0 12 11">
  <path fill="#FFFFFF" d="M10.75,11 L1.25,11 C1.112,11 0.921,10.921 0.823,10.823 L0.177,10.177 C0.079,10.079 8.8817842e-16,9.888 8.8817842e-16,9.75 L8.8817842e-16,9.25 C8.8817842e-16,9.112 0.112,9 0.25,9 L11.75,9 C11.888,9 12,9.112 12,9.25 L12,9.75 C12,9.888 11.921,10.079 11.823,10.177 L11.177,10.823 C11.079,10.921 10.888,11 10.75,11 Z M12,3.014 C12,4.709 10.979,6.004 8.993,6.004 C8.993,7.127 8.088,8.002 6.988,7.999 L2.988,7.989 C1.888,7.988 0.997,7.1 1,6 L1,0.25 C1,0.112 1.112,-1.77635684e-15 1.25,-1.77635684e-15 L9,0.007 C10.979,0.007 12,1.319 12,3.014 Z M10.3,3 C10.3,1.894 9,2 9,2 L9,4 C9,4 10.3,4.106 10.3,3 Z"/>
</svg>
