<svg xmlns="http://www.w3.org/2000/svg" width="8" height="8" viewBox="0 0 8 8">
  <g fill="#FFFFFF" fill-rule="evenodd">
    <path d="M1.2198039,3 L6.7801961,3 C7.33248085,3 7.7801961,3.44771525 7.7801961,4 C7.7801961,4.06585199 7.77369141,4.13154295 7.76077677,4.19611614 L7.16077677,7.19611614 C7.06729193,7.66354033 6.65687712,8 6.1801961,8 L1.8198039,8 C1.34312288,8 0.932708066,7.66354033 0.839223227,7.19611614 L0.239223227,4.19611614 C0.130911276,3.65455638 0.482128014,3.12773127 1.02368777,3.01941932 C1.08826095,3.00650469 1.15395192,3 1.2198039,3 Z"/>
    <path fill-rule="nonzero" d="M3,3 L2,3 C2,1.0931218 2.65587308,0 4,0 C5.34412692,0 6,1.0931218 6,3 L5,3 C5,1.57354487 4.65587308,1 4,1 C3.34412692,1 3,1.57354487 3,3 Z"/>
  </g>
</svg>
