<svg xmlns="http://www.w3.org/2000/svg" width="219" height="31" viewBox="0 0 219 31">
  <path fill="#000000" fill-rule="evenodd" d="M28.0390545,31 L190.960946,31 C203.663495,31 213.960946,20.7025492 213.960946,8 C213.960946,7.99147462 213.95879,6.71458263 213.954479,4.16932405 L213.954478,4.16932405 C213.954323,4.07746778 213.970341,3.98630146 214.001801,3.9000001 C214.001801,3.9000001 214.001801,3.9000001 214.001801,3.9000001 C214.667785,2.07301174 216.211271,0.676168263 218.108167,0.216238031 L219,0 L0,0 L0.891833116,0.216238031 C2.77962014,0.673959707 4.3332983,2.08608489 5.00439453,3.9000001 C5.01926518,3.94019419 5.03304842,3.98600042 5.04574423,4.03741878 L5.03908759,7.96097867 C5.03905448,20.7025492 15.3365052,31 28.0390545,31 Z"/>
</svg>
