<?xml version="1.0" standalone="no"?>
<!DOCTYPE svg PUBLIC "-//W3C//DTD SVG 20010904//EN"
 "http://www.w3.org/TR/2001/REC-SVG-20010904/DTD/svg10.dtd">
<svg version="1.0" xmlns="http://www.w3.org/2000/svg"
 width="700.000000pt" height="700.000000pt" viewBox="0 0 700.000000 700.000000"
 preserveAspectRatio="xMidYMid meet">
<metadata>
Created by potrace 1.11, written by Peter Selinger 2001-2013
</metadata>
<g transform="translate(0.000000,700.000000) scale(0.100000,-0.100000)"
fill="#000000" stroke="none">
<path d="M3390 5964 c-30 -7 -56 -13 -58 -13 -1 0 -14 -4 -30 -7 -44 -11 -111
-47 -432 -234 -168 -98 -320 -186 -337 -196 -18 -11 -186 -109 -374 -219 -188
-110 -360 -211 -383 -224 -320 -182 -402 -275 -473 -532 -4 -13 -8 -472 -9
-1019 -3 -1118 -6 -1069 70 -1225 47 -96 123 -185 206 -242 25 -16 194 -117
375 -223 182 -106 335 -196 340 -200 6 -4 33 -20 60 -35 55 -30 614 -356 710
-414 245 -148 399 -183 601 -137 29 6 156 57 169 66 6 5 48 30 95 57 107 62
1104 644 1147 669 103 61 133 79 173 102 239 135 328 215 398 357 17 33 35 80
42 105 7 25 15 54 18 65 4 11 8 472 9 1025 2 982 2 1007 -18 1080 -41 151
-141 296 -259 377 -25 17 -220 133 -435 258 -214 126 -439 257 -500 293 -60
35 -128 75 -150 87 -22 13 -155 90 -295 172 -262 153 -314 179 -390 198 -81
21 -201 25 -270 9z m340 -271 c36 -20 101 -57 145 -84 80 -48 379 -222 639
-373 l139 -80 -54 -17 c-30 -10 -220 -65 -424 -124 -203 -58 -423 -122 -488
-141 -64 -19 -134 -37 -156 -40 -21 -2 -146 -50 -277 -105 -132 -55 -260 -109
-286 -119 -46 -17 -58 -15 -39 5 4 6 23 37 41 70 30 55 153 277 212 385 51 92
202 366 212 385 6 11 47 84 90 162 l79 141 51 -15 c28 -8 80 -31 116 -50z
m-469 -31 c-12 -17 -21 -33 -21 -36 0 -6 -622 -1136 -645 -1172 -13 -20 -102
-231 -210 -497 -27 -65 -51 -114 -56 -110 -4 4 -16 42 -28 83 -11 41 -45 161
-76 265 -138 472 -215 743 -215 753 0 9 87 63 268 167 20 11 449 262 490 286
15 9 70 41 122 71 52 30 160 93 240 140 80 47 147 84 149 82 2 -1 -6 -16 -18
-32z m1824 -759 c91 -54 180 -106 198 -116 50 -29 122 -104 151 -158 53 -96
56 -121 56 -446 0 -167 -2 -303 -4 -303 -2 0 -156 85 -342 188 -187 104 -373
207 -414 230 -41 22 -136 75 -210 116 -74 42 -140 76 -146 76 -6 0 -24 6 -40
14 -16 8 -110 48 -209 89 -99 42 -198 83 -220 92 l-40 17 240 70 c132 38 247
71 255 73 60 16 152 42 325 94 110 32 207 60 217 60 9 1 91 -43 183 -96z
m-3237 -183 c17 -58 55 -190 86 -295 30 -104 66 -228 79 -275 189 -650 208
-708 320 -980 62 -151 110 -276 106 -278 -5 -2 -284 150 -759 415 -19 11 -65
36 -102 57 l-68 38 0 71 c-3 688 1 1007 14 1053 21 80 65 152 126 206 59 53
151 110 161 99 4 -3 20 -53 37 -111z m1844 -180 c79 -32 248 -103 376 -157
l233 -98 161 -393 161 -392 -161 -392 -160 -393 -388 -163 c-316 -132 -392
-161 -409 -153 -28 14 -639 270 -701 293 l-50 19 -161 394 -162 394 50 123
c101 247 181 444 194 473 7 17 27 66 45 110 l32 80 272 114 c442 186 480 201
503 201 13 0 87 -27 165 -60z m1093 -520 c66 -37 147 -82 180 -100 33 -18 80
-44 105 -58 25 -14 70 -38 100 -55 30 -16 69 -38 85 -47 17 -10 50 -29 75 -42
25 -14 71 -40 103 -58 l58 -32 -3 -577 -3 -577 -38 -76 c-26 -54 -54 -91 -93
-127 -52 -48 -111 -87 -119 -79 -2 2 -71 237 -155 523 -83 286 -155 534 -161
550 -5 17 -25 85 -44 152 -19 67 -50 162 -70 210 -45 110 -50 122 -64 153 -6
14 -40 96 -75 182 l-64 157 32 -16 c17 -9 85 -46 151 -83z m10 -1100 c36 -124
106 -363 155 -531 50 -169 90 -309 90 -311 0 -5 -126 -83 -220 -136 -19 -10
-181 -105 -360 -209 -179 -105 -341 -200 -360 -210 -19 -11 -93 -55 -164 -96
-122 -72 -153 -85 -129 -55 9 11 300 538 428 773 21 39 53 96 71 128 19 32 34
60 34 62 0 2 23 42 50 90 28 48 50 89 50 92 0 3 8 17 19 31 15 22 181 413 181
427 0 2 11 28 24 57 13 29 30 70 37 90 7 21 17 34 21 30 4 -4 37 -109 73 -232z
m-3024 89 c140 -78 286 -158 324 -179 39 -21 174 -96 301 -167 177 -99 295
-156 512 -247 156 -66 280 -121 278 -123 -2 -3 -19 -8 -38 -13 -18 -5 -114
-32 -213 -60 -99 -28 -193 -55 -210 -60 -16 -4 -159 -44 -316 -89 -157 -44
-291 -81 -298 -81 -28 0 -427 243 -473 287 -54 53 -102 138 -117 206 -6 26
-11 165 -11 314 -1 342 -1 353 3 353 2 0 118 -63 258 -141z m2311 -695 c-27
-49 -68 -125 -92 -169 -24 -44 -54 -97 -67 -117 -12 -21 -23 -40 -23 -42 0 -2
-31 -60 -68 -128 -38 -68 -111 -199 -162 -293 -51 -93 -104 -190 -119 -215
-14 -25 -33 -58 -42 -75 -15 -28 -20 -30 -67 -28 -64 3 -122 29 -307 138 -83
48 -163 96 -180 105 -182 105 -585 343 -583 345 3 2 307 89 808 230 413 116
380 105 679 230 146 62 267 111 269 110 2 -2 -19 -43 -46 -91z"/>
</g>
</svg>
