<?xml version="1.0" standalone="no"?>
<!DOCTYPE svg PUBLIC "-//W3C//DTD SVG 20010904//EN"
 "http://www.w3.org/TR/2001/REC-SVG-20010904/DTD/svg10.dtd">
<svg version="1.0" xmlns="http://www.w3.org/2000/svg"
 width="700.000000pt" height="700.000000pt" viewBox="0 0 700.000000 700.000000"
 preserveAspectRatio="xMidYMid meet">
<metadata>
Created by potrace 1.11, written by Peter Selinger 2001-2013
</metadata>
<g transform="translate(0.000000,700.000000) scale(0.100000,-0.100000)"
fill="#000000" stroke="none">
<path d="M1724 3525 c1 -1201 4 -2186 8 -2190 7 -7 1076 -10 1083 -3 3 3 8 76
21 335 3 59 7 128 9 153 2 25 4 79 5 120 l1 75 25 -55 c62 -137 106 -212 174
-301 50 -66 163 -172 228 -215 103 -69 253 -134 343 -149 19 -3 41 -8 49 -10
74 -20 309 -23 411 -5 255 45 443 137 598 291 94 94 156 183 221 314 54 110
115 269 126 331 3 15 11 54 19 88 8 33 17 84 21 111 3 28 8 52 9 55 24 41 24
752 0 791 -2 3 -7 32 -10 63 -9 78 -68 310 -101 394 -117 297 -294 513 -524
638 -101 55 -252 106 -356 120 -76 11 -334 11 -399 0 -284 -46 -545 -238 -676
-498 -16 -32 -31 -58 -34 -58 -2 0 -4 390 -4 868 0 477 0 879 0 895 l-1 27
-623 -1 -623 -1 0 -2183z m1825 43 c150 -50 249 -203 276 -424 4 -33 9 -72 11
-89 5 -43 6 -280 0 -345 -21 -259 -102 -436 -231 -503 -102 -52 -270 -59 -366
-15 -184 86 -265 300 -263 698 1 168 8 243 35 349 48 189 146 306 286 341 60
14 192 8 252 -12z"/>
</g>
</svg>
